<svg xmlns="http://www.w3.org/2000/svg" viewBox="0 0 590 220"><path d="M20.1 48.6c6.1 0 11.1 1.9 14.8 5.7s5.6 9.5 5.6 17.2v29.8c0 7.6-1.9 13.3-5.6 17.1-3.7 3.8-8.7 5.7-14.8 5.7H.5V48.6h19.6zm9.1 64.6c2.2-2.6 3.2-6.5 3.2-11.7V72.3c0-5.5-1.1-9.7-3.2-12.4S24 55.8 20 55.8H8.5V117h11.6c3.9 0 7-1.2 9.1-3.8zm31.4-31h22.1v7.2H60.6V117h25.7v7.1H52.7V48.6h33.6v7.1H60.6v26.5zm44.3.2H127v7.2h-22.1v34.5h-8V48.6h33.6v7.1h-25.6v26.7zm34.4 19.8V70.7c0-7.7 1.9-13.5 5.6-17.3 3.7-3.8 8.7-5.7 14.9-5.7s11.2 1.9 14.9 5.7 5.6 9.6 5.6 17.3v31.5c0 7.6-1.9 13.3-5.6 17.1-3.8 3.8-8.7 5.7-14.8 5.7-6.2 0-11.2-1.9-14.9-5.7-3.9-3.9-5.7-9.5-5.7-17.1zm32.9.1v-31c0-5.5-1.1-9.7-3.2-12.4-2.1-2.7-5.2-4.1-9.2-4.1-4.2 0-7.4 1.4-9.5 4.1-2.1 2.7-3.1 6.9-3.1 12.5v30.9c0 10.4 4.2 15.6 12.6 15.6 3.9 0 7-1.3 9.1-3.9 2.2-2.7 3.3-6.6 3.3-11.7zm28-11.1v33.1h-8V48.6h19.9c6.6 0 11.5 1.8 14.5 5.3s4.5 8.9 4.5 16.1c0 10.8-3.7 17.5-11.2 19.9l13.4 34.3h-8.5l-12.5-33.1s-12.1 0-12.1.1zm11.8-7c3.9 0 6.7-1.2 8.5-3.6s2.7-5.9 2.7-10.6c0-4.7-.9-8.3-2.6-10.7-1.7-2.4-4.6-3.6-8.6-3.6h-11.8v28.4l11.8.1zm84.5 40h-8v-58l-15.6 40.5h-5.3L252 66.5v57.7h-8V48.6h8l18.5 46.6 18-46.6h8v75.6zM20.1 142.1c6.1 0 11.1 1.9 14.8 5.7 3.7 3.8 5.6 9.5 5.6 17.2v29.8c0 7.6-1.9 13.3-5.6 17.1-3.7 3.8-8.7 5.7-14.8 5.7H.5V142l19.6.1zm9.1 64.5c2.2-2.6 3.2-6.5 3.2-11.7v-29.1c0-5.5-1.1-9.7-3.2-12.4-2.1-2.7-5.2-4.1-9.2-4.1H8.5v61.3h11.6c3.9 0 7-1.2 9.1-4zm42.4 11.2h-7.9v-31.4l-16.5-44.1H56l11.7 34.6 11.7-34.6h8.8l-16.6 44.1v31.4zm65.9 0h-8l-25.8-58v58h-8v-75.6h8l25.8 58.2v-58.2h8v75.6zm20.7-19.3l-4.8 19.3h-8.3l20.6-75.6h7.3l20.6 75.6h-8.4l-4.8-19.3h-22.2zm11.1-44.2l-9.3 37.3h18.6l-9.3-37.3zm84.2 63.5h-8v-58l-15.6 40.5h-5.3L209 160v57.7h-8v-75.6h8l18.3 46.7 18.1-46.7h8v75.6h.1zm21.8-75.7v75.6h-7.9v-75.6h7.9zm12.8 53.7v-31.5c0-7.7 1.9-13.4 5.6-17.2 3.8-3.8 8.7-5.8 14.9-5.8 6 0 10.9 1.8 14.7 5.5 3.8 3.7 5.7 9.2 5.7 16.5v1h-8v-.8c0-5.2-1.1-9-3.3-11.4-2.2-2.4-5.2-3.6-8.9-3.6-4.2 0-7.4 1.3-9.5 4-2.1 2.7-3.2 6.8-3.2 12.5v30.9c0 10.4 4.2 15.6 12.7 15.6 3.8 0 6.8-1.2 9-3.6 2.2-2.4 3.3-6.1 3.3-11.1v-1h7.8v1.1c0 7.3-1.9 12.8-5.6 16.4-3.7 3.6-8.5 5.4-14.5 5.4-6.2 0-11.2-1.9-15-5.7-3.8-4-5.7-9.6-5.7-17.2zm49.5 1.2h7.8c.2 5.1 1.4 8.8 3.5 11 2.1 2.2 5.1 3.3 8.9 3.3 3.9 0 6.9-1.1 8.8-3.3 1.9-2.2 2.9-5.6 2.9-10.2 0-4-.9-7-2.6-9.1-1.7-2-4.8-4-9.3-5.8l-4.4-1.8c-5-2-8.7-4.5-11.2-7.6s-3.7-7.2-3.7-12.4c0-6.1 1.7-11 5.2-14.7 3.5-3.7 8.2-5.5 14.3-5.5 5.8 0 10.3 1.7 13.7 5.1 3.4 3.4 5.2 8.5 5.5 15.3h-7.5c-.5-8.8-4.4-13.3-11.7-13.3-3.8 0-6.6 1.1-8.5 3.3-1.9 2.2-2.8 5.3-2.8 9.3 0 3.6.9 6.4 2.6 8.4s4.7 3.9 8.8 5.5l4.5 1.8c5 2 8.8 4.6 11.4 7.8 2.6 3.2 3.8 7.7 3.8 13.5 0 6.6-1.7 11.8-5.1 15.4-3.4 3.6-8.4 5.4-14.9 5.4-6.4 0-11.3-1.8-14.6-5.5-3.5-3.5-5.2-8.9-5.4-15.9zM480.8 1.3h-129l109.7 217h19.4c59.9 0 108.6-48.6 108.6-108.5S540.8 1.3 480.8 1.3zm-114.3 9h38.2l43.1 160.8-81.3-160.8zm47.8 0H481c11.2 0 21.9 2 32 5.4l-48.6 181.4-50.1-186.8zm107.2 8.9c29.9 13.4 52.1 41.2 57.5 74.5L473 199.8l48.5-180.6zm-40.7 190.2h-4.6l103.9-103.9c.1 1.5.1 3 .1 4.5.1 54.8-44.4 99.4-99.4 99.4z"/></svg>